<?xml version="1.0" standalone="no"?>
<!DOCTYPE svg PUBLIC "-//W3C//DTD SVG 20010904//EN"
 "http://www.w3.org/TR/2001/REC-SVG-20010904/DTD/svg10.dtd">
<svg version="1.0" xmlns="http://www.w3.org/2000/svg"
 width="604.000000pt" height="604.000000pt" viewBox="0 0 604.000000 604.000000"
 preserveAspectRatio="xMidYMid meet">
<metadata>
Created by potrace 1.11, written by Peter Selinger 2001-2013
</metadata>
<g transform="translate(0.000000,604.000000) scale(0.100000,-0.100000)"
fill="#000000" stroke="none">
<path d="M1856 5593 c-3 -4 -12 -8 -19 -9 -16 -2 -125 -33 -157 -44 -23 -8
-169 -52 -222 -68 -38 -11 -199 -6 -393 12 -47 4 -163 14 -265 22 -74 5 -192
15 -240 19 -25 2 -81 7 -125 10 -44 3 -102 8 -130 11 -27 2 -84 7 -125 10
-146 10 -133 12 -140 -22 -7 -30 -5 -31 44 -47 51 -17 193 -59 341 -102 111
-32 340 -100 398 -118 26 -8 49 -15 50 -15 1 0 36 -10 77 -22 41 -12 80 -23
85 -24 6 -1 15 -4 20 -8 6 -3 46 -15 90 -27 44 -12 104 -29 133 -37 l53 -16
70 -146 c205 -427 219 -457 219 -470 0 -6 6 -17 13 -24 29 -31 74 -159 150
-438 9 -30 27 -95 42 -145 14 -49 28 -100 30 -111 3 -12 13 -51 24 -85 10 -35
33 -116 51 -179 17 -63 38 -140 47 -170 8 -30 19 -66 23 -80 5 -14 14 -49 21
-79 10 -41 25 -65 64 -106 45 -47 355 -369 510 -530 33 -34 142 -147 241 -251
233 -242 283 -294 534 -554 434 -450 394 -402 612 -724 7 -10 18 -24 23 -30 6
-7 15 -19 20 -29 27 -46 231 -342 238 -345 4 -2 7 -10 7 -17 0 -7 4 -15 8 -17
5 -1 32 -38 61 -80 48 -73 53 -77 74 -65 34 19 35 24 15 95 -10 37 -20 76 -22
87 -3 11 -23 94 -46 185 -23 91 -43 172 -45 180 -1 8 -8 35 -15 59 -13 50 -9
60 17 34 10 -10 52 -47 93 -83 40 -36 84 -74 96 -85 12 -11 44 -39 71 -62 26
-22 57 -49 68 -60 68 -61 63 -59 89 -34 l24 22 -66 112 c-35 62 -76 132 -90
156 -14 25 -38 67 -53 93 -16 27 -29 53 -29 58 0 6 -4 10 -9 10 -5 0 -11 8
-14 18 -3 9 -20 40 -36 67 -17 28 -34 57 -38 65 -7 15 -126 222 -144 250 -5 8
-11 20 -14 25 -13 30 -175 463 -175 469 0 3 -8 25 -18 49 -11 23 -29 69 -41
102 -43 116 -49 130 -65 170 -8 22 -38 101 -66 175 -28 74 -65 171 -81 215
-17 44 -40 105 -51 135 -11 30 -24 64 -29 75 -5 11 -22 56 -39 100 -35 91 -42
77 80 161 47 32 183 127 302 211 120 84 222 153 227 153 5 0 11 4 13 8 2 5 32
28 67 53 35 24 89 62 121 84 31 22 93 64 136 94 43 30 81 57 84 60 3 3 39 29
80 56 70 47 183 125 205 143 6 4 53 37 105 72 52 36 97 67 100 70 3 3 18 14
35 24 16 11 34 23 40 28 8 7 161 114 229 160 10 7 24 19 32 26 7 6 15 12 18
12 6 0 322 221 343 239 7 6 16 11 20 11 4 0 23 13 42 29 33 27 34 30 22 58
l-12 30 -82 -18 c-45 -10 -95 -20 -112 -23 -16 -2 -120 -23 -230 -46 -205 -42
-228 -47 -267 -54 -13 -2 -34 -7 -48 -10 -14 -3 -36 -8 -50 -10 -14 -2 -45 -9
-70 -15 -25 -5 -58 -12 -75 -15 -16 -3 -120 -24 -230 -46 -110 -23 -211 -43
-225 -46 -14 -3 -81 -17 -150 -31 -69 -14 -134 -27 -145 -28 -44 -7 -89 -16
-96 -20 -4 -3 -22 -7 -40 -10 -19 -3 -41 -6 -49 -8 -19 -5 -79 -17 -105 -22
-11 -2 -20 -4 -20 -5 0 -1 -12 -3 -26 -5 -14 -2 -71 -13 -125 -24 -54 -11
-111 -23 -126 -26 -16 -3 -40 -7 -55 -10 -32 -6 -218 -45 -248 -52 -11 -2 -33
-6 -49 -8 -15 -2 -35 -7 -45 -9 -9 -3 -29 -8 -46 -11 -16 -2 -41 -7 -55 -10
-14 -3 -36 -8 -50 -11 -14 -2 -68 -13 -121 -24 l-95 -20 -45 22 c-24 12 -46
22 -49 23 -3 0 -23 10 -45 22 -32 17 -56 44 -107 125 -65 101 -67 105 -83 213
-9 61 -19 124 -22 140 -3 17 -7 40 -8 52 -2 13 -6 41 -10 63 -4 22 -8 50 -10
63 -7 49 -16 103 -19 122 -3 11 -5 32 -5 47 -1 22 -52 97 -106 154 -5 6 -26
30 -45 53 -96 115 -84 107 -225 141 -71 18 -137 33 -145 35 -8 2 -43 10 -76
19 -68 18 -87 19 -98 9z m118 -274 c12 -14 13 -47 2 -62 -18 -23 -58 -16 -72
13 -10 18 -9 26 3 40 13 15 56 21 67 9z"/>
</g>
</svg>
