<svg id="Layer_1" data-name="Layer 1" xmlns="http://www.w3.org/2000/svg" viewBox="0 0 122.88 31.36"><defs><style>.cls-1{fill:#2980b9;}.cls-2,.cls-3{fill:none;}.cls-2{stroke:#2980b9;stroke-width:0.38px;}</style></defs><title>Artboard 1</title><path class="cls-1" d="M26.82,24.08,23.37,15l13.4-9.35L19.51,9.14,18.4,8.59l-.8-1.25L17,3.76,15.78,2.27,13.5,1.72l-2.71.8L3.08,1.91l7.44,2.2,2.09,4.43,1.93,6.85,9.82,10.2,3.46,5.07-1.07-4.27L29.6,28.9ZM14,3.78l-.48-.1-.15-.47.33-.37.49.1.15.47Zm0,0"/><path class="cls-2" d="M26.82,24.08,23.37,15l13.4-9.35L19.51,9.14,18.4,8.59l-.8-1.25L17,3.76,15.78,2.27,13.5,1.72l-2.71.8L3.08,1.91l7.44,2.2,2.09,4.43,1.93,6.85,9.82,10.2,3.46,5.07-1.07-4.27L29.6,28.9ZM14,3.78l-.48-.1-.15-.47.33-.37.49.1.15.47Zm0,0"/><rect class="cls-3" x="43.87" y="-32.79" width="132" height="64.8"/><path class="cls-1" d="M54.15,23.44l-.94,0-1-.06-1-.1a7.29,7.29,0,0,1-.91-.17V9.16A7.75,7.75,0,0,1,51.19,9l1-.11,1-.06.93,0A13.58,13.58,0,0,1,56.47,9a5.81,5.81,0,0,1,1.89.63,3.41,3.41,0,0,1,1.25,1.17,3.29,3.29,0,0,1,.46,1.78,3.15,3.15,0,0,1-.56,1.94A3.37,3.37,0,0,1,58,15.65a4.33,4.33,0,0,1,2,1.18,3.23,3.23,0,0,1,.75,2.28,3.68,3.68,0,0,1-1.59,3.24,9.05,9.05,0,0,1-5,1.09Zm-1.88-6.82v5.06l.54,0,.63,0h.84A12.09,12.09,0,0,0,56,21.65a4.6,4.6,0,0,0,1.4-.41,2.43,2.43,0,0,0,1-.81,2.23,2.23,0,0,0,.36-1.31,2.45,2.45,0,0,0-.27-1.19,2,2,0,0,0-.78-.78,3.75,3.75,0,0,0-1.21-.41,8.9,8.9,0,0,0-1.58-.12Zm0-1.62h2.11a9.24,9.24,0,0,0,1.41-.1,3.5,3.5,0,0,0,1.15-.37,2.11,2.11,0,0,0,.77-.71,2,2,0,0,0,.28-1.1,1.8,1.8,0,0,0-.29-1,2.08,2.08,0,0,0-.8-.68,4.25,4.25,0,0,0-1.19-.38,8.24,8.24,0,0,0-1.45-.13l-1.2,0-.79.06ZM67.18,8.95h2V23.32h-2Zm16.18,8.36c.22.28.5.64.84,1.09s.69.95,1,1.5S86,21,86.31,21.6a17.62,17.62,0,0,1,.9,1.72H85q-.41-.79-.9-1.6c-.32-.54-.65-1.05-1-1.55s-.66-.95-1-1.38-.62-.8-.88-1.12l-.55,0H78.34v5.62h-2V9.16a11.53,11.53,0,0,1,1.9-.28c.7,0,1.34-.07,1.92-.07a7.83,7.83,0,0,1,4.61,1.14,3.92,3.92,0,0,1,1.59,3.4,4,4,0,0,1-.76,2.45,4.45,4.45,0,0,1-2.23,1.51Zm-3-6.74q-1.29,0-2,.06V16h1.43a15.3,15.3,0,0,0,1.87-.1,4.3,4.3,0,0,0,1.4-.4,2.08,2.08,0,0,0,.88-.82,2.73,2.73,0,0,0,.31-1.4A2.65,2.65,0,0,0,83.92,12a2.3,2.3,0,0,0-.84-.85,3.65,3.65,0,0,0-1.24-.44,9.09,9.09,0,0,0-1.52-.12Zm24.43,5.56a8.33,8.33,0,0,1-.58,3.24,6,6,0,0,1-1.64,2.28A6.92,6.92,0,0,1,100,23a11.14,11.14,0,0,1-3.24.45c-.58,0-1.22,0-1.92-.07a11.33,11.33,0,0,1-1.9-.28V9.16a11.52,11.52,0,0,1,1.9-.28c.7,0,1.34-.07,1.92-.07a11.14,11.14,0,0,1,3.24.45,6.92,6.92,0,0,1,2.53,1.35,6.05,6.05,0,0,1,1.64,2.28,8.34,8.34,0,0,1,.58,3.25Zm-7.82,5.55a5.67,5.67,0,0,0,4.27-1.46,5.65,5.65,0,0,0,1.41-4.09,5.66,5.66,0,0,0-1.41-4.1,5.67,5.67,0,0,0-4.27-1.46c-.57,0-1,0-1.32,0l-.65,0v11l.65,0c.31,0,.75,0,1.32,0Zm21.4-4.37c.22.28.5.64.84,1.09s.69.95,1,1.5.72,1.12,1.07,1.71a17.73,17.73,0,0,1,.9,1.72H120q-.41-.79-.9-1.6t-1-1.55q-.5-.73-1-1.38c-.32-.43-.62-.8-.88-1.12l-.55,0h-2.37v5.62h-2V9.16a11.52,11.52,0,0,1,1.9-.28c.7,0,1.34-.07,1.92-.07a7.83,7.83,0,0,1,4.61,1.14,3.92,3.92,0,0,1,1.59,3.4,4,4,0,0,1-.76,2.45,4.46,4.46,0,0,1-2.23,1.51Zm-3-6.74q-1.29,0-2,.06V16h1.43a15.34,15.34,0,0,0,1.87-.1,4.3,4.3,0,0,0,1.4-.4,2.08,2.08,0,0,0,.88-.82,2.73,2.73,0,0,0,.31-1.4,2.65,2.65,0,0,0-.31-1.35,2.31,2.31,0,0,0-.84-.85,3.69,3.69,0,0,0-1.24-.44,9.11,9.11,0,0,0-1.52-.12Zm0,0"/></svg>