<?xml version="1.0" encoding="UTF-8" standalone="no"?>
<svg
   xmlns:dc="http://purl.org/dc/elements/1.1/"
   xmlns:cc="http://creativecommons.org/ns#"
   xmlns:rdf="http://www.w3.org/1999/02/22-rdf-syntax-ns#"
   xmlns:svg="http://www.w3.org/2000/svg"
   xmlns="http://www.w3.org/2000/svg"
   viewBox="0 0 176 86.666664"
   height="86.666664"
   width="176"
   xml:space="preserve"
   id="svg2"
   version="1.1"><metadata
     id="metadata8"><rdf:RDF><cc:Work
         rdf:about=""><dc:format>image/svg+xml</dc:format><dc:type
           rdf:resource="http://purl.org/dc/dcmitype/StillImage" /></cc:Work></rdf:RDF></metadata><defs
     id="defs6" /><g
     transform="matrix(1.3333333,0,0,-1.3333333,0,86.666667)"
     id="g10"><g
       transform="scale(0.1)"
       id="g12"><path
         id="path14"
         style="fill:#ffffff;fill-opacity:1;fill-rule:nonzero;stroke:none"
         d="m 725.98,418.34 -34.46,90.859 133.992,93.52 -172.582,-34.957 -11.09,5.5 -7.969,12.5 -5.551,35.789 -12.699,14.918 -22.812,5.429 -27.071,-7.968 -77.109,6.129 74.383,-21.989 20.937,-44.34 19.25,-68.511 98.211,-102 34.641,-50.699 -10.66,42.699 28.437,-25.078 z m -128.359,202.969 -4.851,1.019 -1.52,4.684 3.281,3.679 4.848,-0.98 1.519,-4.731 z" /><path
         id="path16"
         style="fill:none;stroke:#ffffff;stroke-width:3.75;stroke-linecap:butt;stroke-linejoin:miter;stroke-miterlimit:4;stroke-dasharray:none;stroke-opacity:1"
         d="m 725.98,418.34 -34.46,90.859 133.992,93.52 -172.582,-34.961 -11.09,5.504 -7.969,12.496 -5.551,35.793 -12.699,14.918 -22.812,5.429 -27.071,-7.968 -77.109,6.129 74.383,-21.989 20.937,-44.34 19.25,-68.511 98.211,-101.989 34.641,-50.71 -10.66,42.699 28.437,-25.078 z m -128.359,202.969 -4.851,1.019 -1.52,4.68 3.281,3.683 4.848,-0.98 1.519,-4.731 z" /><path
         id="path18"
         style="fill:#ffffff;fill-opacity:1;fill-rule:nonzero;stroke:none"
         d="m 70.8594,9.98047 c -5.2696,0 -11.0586,0.16013 -17.2305,0.34763 C 47.4609,10.6484 41.25,11 35.0781,11.4688 c -6.207,0.5 -12.3476,1.2109 -18.3984,1.9101 C 10.6211,14.1211 5.07813,15.1797 0,16.4688 V 271.078 c 5.07813,1.25 10.6211,2.262 16.6797,3 6.0508,0.793 12.1914,1.453 18.3984,1.961 6.1719,0.473 12.3008,0.82 18.3633,1.09 6.0469,0.242 11.7578,0.391 17.0703,0.391 15.1485,0 29.3672,-1.129 42.6093,-3.442 13.289,-2.219 24.77,-6.129 34.5,-11.558 9.719,-5.43 17.379,-12.54 22.93,-21.399 5.539,-8.832 8.32,-19.652 8.32,-32.582 0,-14.418 -3.402,-26.211 -10.242,-35.391 -6.789,-9.218 -15.899,-16.136 -27.258,-20.707 15.391,-4.531 27.649,-11.75 36.75,-21.601 9.109,-9.801 13.641,-23.75 13.641,-41.6798 0,-26.25 -9.653,-46.0118 -28.992,-59.2891 C 143.441,16.5781 112.809,9.98047 70.8594,9.98047 Z M 36.4102,134.629 V 42.2109 c 2.7695,-0.2695 6.0507,-0.5507 9.8398,-0.7421 3.2813,-0.3204 7.1484,-0.4688 11.5586,-0.629 4.4219,-0.121 9.5312,-0.1914 15.3516,-0.1914 10.8593,0 21.1406,0.7422 30.8598,2.1133 9.73,1.3594 18.281,3.8164 25.589,7.418 7.34,3.4687 13.2,8.4414 17.621,14.7187 4.411,6.3321 6.641,14.3008 6.641,23.8711 0,8.6016 -1.641,15.8595 -4.922,21.8395 -3.289,5.903 -8.008,10.621 -14.219,14.18 -6.179,3.551 -13.601,6.051 -22.152,7.582 -8.598,1.559 -18.1991,2.258 -28.828,2.258 z m 0,29.57 h 38.6289 c 9.1015,0 17.6914,0.629 25.7809,1.879 8.09,1.293 15.078,3.551 21.02,6.832 5.93,3.281 10.621,7.621 14.019,12.891 3.403,5.32 5.121,12 5.121,20.078 0,7.621 -1.761,13.949 -5.32,19.141 -3.512,5.199 -8.39,9.339 -14.57,12.5 -6.211,3.171 -13.469,5.55 -21.7892,7.031 -8.3203,1.488 -17.1914,2.308 -26.5313,2.308 -9.3281,0 -16.6797,-0.16 -21.9882,-0.39 -5.3125,-0.278 -10.0821,-0.668 -14.3711,-1.168 z M 308.949,274.871 h 36.75 V 12.289 h -36.75 z M 604.57,122.129 c 4.059,-5.039 9.18,-11.68 15.352,-19.84 6.207,-8.2382 12.578,-17.3476 19.137,-27.3476 6.562,-9.9609 13.089,-20.3906 19.531,-31.25 6.449,-10.8633 11.922,-21.3203 16.488,-31.4023 h -40.199 c -5.039,9.5703 -10.539,19.289 -16.481,29.1797 -5.898,9.8007 -11.918,19.2226 -17.968,28.2421 -6.09,8.9102 -12.071,17.3008 -18.008,25.1602 -5.942,7.8479 -11.332,14.6409 -16.094,20.4569 -3.277,-0.269 -6.637,-0.387 -10.039,-0.387 H 512.891 V 12.2891 H 476.129 V 271.078 c 10.351,2.5 21.922,4.223 34.652,5.113 12.77,0.86 24.449,1.329 35.078,1.329 36.871,0 64.961,-6.911 84.301,-20.86 19.328,-13.898 28.981,-34.609 28.981,-62.148 0,-17.422 -4.61,-32.301 -13.832,-44.723 -9.219,-12.391 -22.77,-21.598 -40.739,-27.66 z m -55.699,123.172 c -15.672,0 -27.66,-0.403 -35.98,-1.141 v -98.898 h 26.129 c 12.621,0 24.031,0.617 34.101,1.867 10.117,1.332 18.641,3.672 25.59,7.23 6.949,3.512 12.309,8.512 16.09,15 3.789,6.403 5.711,14.961 5.711,25.539 0,9.891 -1.922,18.051 -5.711,24.614 -3.781,6.566 -8.903,11.758 -15.352,15.547 -6.398,3.832 -13.98,6.453 -22.73,8.011 -8.707,1.481 -17.969,2.231 -27.848,2.231 z M 995.352,143.73 c 0,-22.691 -3.512,-42.5 -10.582,-59.2886 C 977.66,67.6797 967.699,53.7305 954.801,42.7617 941.91,31.7813 926.52,23.5391 908.59,18.1484 890.621,12.7188 870.941,9.98047 849.449,9.98047 c -10.578,0 -22.301,0.42973 -35.039,1.32813 -12.769,0.9023 -24.332,2.6211 -34.68,5.1602 V 271.078 c 10.348,2.5 21.911,4.223 34.68,5.113 12.738,0.86 24.461,1.329 35.039,1.329 21.492,0 41.172,-2.731 59.141,-8.161 17.93,-5.39 33.32,-13.64 46.211,-24.609 12.898,-11.02 22.859,-24.922 29.969,-41.68 7.07,-16.84 10.582,-36.601 10.582,-59.34 z M 852.5,42.2109 c 34.84,0 60.859,8.8672 78.051,26.7188 17.179,17.7695 25.777,42.7303 25.777,74.8003 0,32.071 -8.598,57.032 -25.777,74.848 -17.192,17.852 -43.211,26.723 -78.051,26.723 -10.352,0 -18.398,-0.082 -24.059,-0.403 -5.711,-0.187 -9.691,-0.5 -11.961,-0.738 V 43.3008 c 2.27,-0.1914 6.25,-0.5 11.961,-0.7422 5.661,-0.2695 13.707,-0.3477 24.059,-0.3477 z m 391.13,79.9181 c 4.07,-5.039 9.18,-11.68 15.35,-19.84 6.22,-8.2382 12.58,-17.3476 19.14,-27.3476 6.57,-9.9609 13.09,-20.3906 19.54,-31.25 6.44,-10.8633 11.91,-21.3203 16.48,-31.4023 h -40.19 c -5.04,9.5703 -10.55,19.289 -16.49,29.1797 -5.94,9.8007 -11.91,19.2226 -17.97,28.2421 -6.09,8.9102 -12.07,17.3008 -18.01,25.1602 -5.93,7.8479 -11.32,14.6409 -16.13,20.4569 -3.28,-0.269 -6.6,-0.387 -10.04,-0.387 h -43.36 V 12.2891 H 1115.2 V 271.078 c 10.35,2.5 21.91,4.223 34.64,5.113 12.78,0.86 24.46,1.329 35.08,1.329 36.88,0 64.96,-6.911 84.3,-20.86 19.33,-13.898 28.98,-34.609 28.98,-62.148 0,-17.422 -4.61,-32.301 -13.82,-44.723 -9.22,-12.391 -22.82,-21.598 -40.75,-27.66 z m -55.7,123.172 c -15.66,0 -27.66,-0.403 -35.98,-1.141 v -98.898 h 26.14 c 12.61,0 23.98,0.617 34.1,1.867 10.11,1.332 18.63,3.672 25.58,7.23 6.96,3.512 12.31,8.512 16.1,15 3.79,6.403 5.7,14.961 5.7,25.539 0,9.891 -1.91,18.051 -5.7,24.614 -3.79,6.566 -8.91,11.758 -15.35,15.547 -6.45,3.832 -14.03,6.453 -22.74,8.011 -8.71,1.481 -18.01,2.231 -27.85,2.231 z" /></g></g></svg>
